<?xml version="1.0" encoding="UTF-8" standalone="no"?>
<!-- Generator: IcoMoon.io -->

<svg
   xmlns:dc="http://purl.org/dc/elements/1.1/"
   xmlns:cc="http://creativecommons.org/ns#"
   xmlns:rdf="http://www.w3.org/1999/02/22-rdf-syntax-ns#"
   xmlns:svg="http://www.w3.org/2000/svg"
   xmlns="http://www.w3.org/2000/svg"
   xmlns:sodipodi="http://sodipodi.sourceforge.net/DTD/sodipodi-0.dtd"
   xmlns:inkscape="http://www.inkscape.org/namespaces/inkscape"
   width="32.070419"
   height="32.070419"
   viewBox="0 0 32.070419 32.070419"
   id="svg2"
   version="1.1"
   inkscape:version="0.48.4 r9939"
   sodipodi:docname="play2-32.svg"
   style="fill:#000000">
  <metadata
     id="metadata73">
    <rdf:RDF>
      <cc:Work
         rdf:about="">
        <dc:format>image/svg+xml</dc:format>
        <dc:type
           rdf:resource="http://purl.org/dc/dcmitype/StillImage" />
        <dc:title />
      </cc:Work>
    </rdf:RDF>
  </metadata>
  <defs
     id="defs71" />
  <sodipodi:namedview
     pagecolor="#ffffff"
     bordercolor="#666666"
     borderopacity="1"
     objecttolerance="10"
     gridtolerance="10"
     guidetolerance="10"
     inkscape:pageopacity="0"
     inkscape:pageshadow="2"
     inkscape:window-width="1680"
     inkscape:window-height="1026"
     id="namedview69"
     showgrid="false"
     fit-margin-top="2"
     fit-margin-left="2"
     fit-margin-right="2"
     fit-margin-bottom="2"
     inkscape:zoom="8.9693878"
     inkscape:cx="17"
     inkscape:cy="13"
     inkscape:window-x="0"
     inkscape:window-y="119"
     inkscape:window-maximized="1"
     inkscape:current-layer="svg2" />
  <path
     d="m 16.03521,2.0625 c -7.71692,0 -13.97271,6.25579 -13.97271,13.97271 0,7.71692 6.25579,13.97271 13.97271,13.97271 7.71692,0 13.97271,-6.25579 13.97271,-13.97271 0,-7.71692 -6.25579,-13.97271 -13.97271,-13.97271 z m 0,25.32554 c -6.26998,0 -11.35283,-5.08285 -11.35283,-11.35283 0,-6.26998 5.08285,-11.35283 11.35283,-11.35283 6.26998,0 11.35283,5.08285 11.35283,11.35283 0,6.26998 -5.08285,11.35283 -11.35283,11.35283 z M 12.54203,9.92215 23.02156,16.03521 12.54203,22.14827 z"
     id="path67"
     inkscape:connector-curvature="0" />
</svg>
